<svg width="79" height="80" viewBox="0 0 79 80" fill="none" xmlns="http://www.w3.org/2000/svg">
<path d="M39.4894 26.661C32.2364 26.661 26.3174 32.655 26.3174 40C26.3174 47.345 32.2364 53.339 39.4894 53.339C46.7424 53.339 52.6614 47.345 52.6614 40C52.6614 32.655 46.7424 26.661 39.4894 26.661ZM78.9956 40C78.9956 34.4763 79.045 29.0026 78.7387 23.4888C78.4324 17.0845 76.9897 11.4007 72.3651 6.71751C67.7307 2.02434 62.1279 0.573362 55.8037 0.263152C50.3491 -0.0470575 44.944 0.00297645 39.4993 0.00297645C34.0447 0.00297645 28.6395 -0.0470575 23.1948 0.263152C16.8706 0.573362 11.258 2.03435 6.63342 6.71751C1.999 11.4107 0.566184 17.0845 0.259858 23.4888C-0.0464684 29.0126 0.00293919 34.4863 0.00293919 40C0.00293919 45.5137 -0.0464684 50.9974 0.259858 56.5112C0.566184 62.9155 2.00888 68.5993 6.63342 73.2825C11.2678 77.9757 16.8706 79.4266 23.1948 79.7368C28.6494 80.0471 34.0546 79.997 39.4993 79.997C44.9538 79.997 50.359 80.0471 55.8037 79.7368C62.1279 79.4266 67.7406 77.9656 72.3651 73.2825C76.9995 68.5893 78.4324 62.9155 78.7387 56.5112C79.0549 50.9974 78.9956 45.5237 78.9956 40ZM39.4894 60.5239C28.2739 60.5239 19.2224 51.3577 19.2224 40C19.2224 28.6423 28.2739 19.4761 39.4894 19.4761C50.7049 19.4761 59.7563 28.6423 59.7563 40C59.7563 51.3577 50.7049 60.5239 39.4894 60.5239ZM60.5864 23.4288C57.9678 23.4288 55.8531 21.2874 55.8531 18.6356C55.8531 15.9838 57.9678 13.8423 60.5864 13.8423C63.205 13.8423 65.3196 15.9838 65.3196 18.6356C65.3204 19.2652 65.1985 19.8889 64.9609 20.4708C64.7233 21.0527 64.3747 21.5814 63.935 22.0267C63.4953 22.4719 62.9732 22.8249 62.3986 23.0655C61.824 23.3062 61.2082 23.4296 60.5864 23.4288Z" fill="#CE0000"/>
</svg>
